<?xml version="1.0" encoding="UTF-8"?>
<svg id="Layer_1" xmlns="http://www.w3.org/2000/svg" xmlns:xlink="http://www.w3.org/1999/xlink" version="1.1" viewBox="0 0 1000 1000">
  <!-- Generator: Adobe Illustrator 30.5.1, SVG Export Plug-In . SVG Version: 2.1.4 Build 3)  -->
  <defs>
    <style>
      .st0 {
        fill: #6d6d6d;
      }

      .st1 {
        fill: url(#linear-gradient1);
      }

      .st2 {
        fill: none;
        stroke: #c84d3f;
        stroke-linecap: round;
        stroke-width: 12px;
      }

      .st3 {
        fill: url(#linear-gradient);
      }

      .st4 {
        fill: #c84d3f;
      }

      .st5 {
        fill: #c6c6c6;
      }

      .st6 {
        fill: #fff;
      }

      .st7 {
        fill: #61a1c1;
      }

      .st8 {
        fill: #cbd2d8;
      }

      .st9 {
        fill: #ff8431;
        isolation: isolate;
        opacity: .9;
      }

      .st10 {
        fill: #282828;
      }

      .st11 {
        fill: #dde4ea;
      }

      .st12 {
        fill: #a9b3bc;
      }

      .st13 {
        fill: #ffe3c5;
      }

      .st14 {
        fill: #ffdba6;
      }
    </style>
    <linearGradient id="linear-gradient" x1="269.38" y1="519" x2="768.62" y2="519" gradientUnits="userSpaceOnUse">
      <stop offset="0" stop-color="#fff"/>
      <stop offset="1" stop-color="#eef1f4"/>
    </linearGradient>
    <linearGradient id="linear-gradient1" x1="261.39" y1="872.76" x2="695.91" y2="114.66" gradientTransform="translate(0 1002) scale(1 -1)" xlink:href="#linear-gradient"/>
  </defs>
  <rect class="st10" width="1000" height="1000" rx="209.19" ry="209.19"/>
  <rect class="st9" x="118.25" y="118.25" width="763.49" height="763.49" rx="155.93" ry="155.93" transform="translate(500 -207.11) rotate(45)"/>
  <path class="st3" d="M324.85,158.44h312.02l131.74,131.74v533.91c0,30.64-24.83,55.47-55.47,55.47h-388.29c-30.64,0-55.47-24.83-55.47-55.47V213.91c0-30.64,24.83-55.47,55.47-55.47Z"/>
  <path class="st5" d="M317.85,151.44h312.02l131.74,131.74v533.91c0,30.64-24.83,55.47-55.47,55.47h-388.29c-30.64,0-55.47-24.83-55.47-55.47V206.91c0-30.64,24.83-55.47,55.47-55.47Z"/>
  <g>
    <g>
      <path class="st1" d="M305.85,139.44h312.02l131.74,131.74v533.91c0,30.64-24.83,55.47-55.47,55.47h-388.29c-30.64,0-55.47-24.83-55.47-55.47V194.91c0-30.64,24.83-55.47,55.47-55.47Z"/>
      <path class="st11" d="M617.88,139.44v94.76c0,30.64,24.83,55.47,55.47,55.47l76.27-18.49-131.74-131.74Z"/>
    </g>
    <rect class="st4" x="315.1" y="291.99" width="295.84" height="115.56" rx="14" ry="14"/>
    <g>
      <path class="st6" d="M337.44,393.56v-85.29h43.46c19.9,0,32.09,12.18,32.09,30.06s-12.18,30.06-32.09,30.06h-21.93v25.18h-21.53ZM358.96,350.51h18.68c8.53,0,13.4-4.47,13.4-12.18s-4.87-12.18-13.4-12.18h-18.68v24.37Z"/>
      <path class="st6" d="M432.48,393.56v-85.29h34.93c26.4,0,43.05,16.25,43.05,42.65s-16.65,42.65-43.05,42.65h-34.93ZM454.01,374.88h12.18c13.81,0,21.93-8.94,21.93-23.96s-8.12-23.96-21.93-23.96h-12.18v47.93Z"/>
      <path class="st6" d="M532.4,393.56v-85.29h62.55v18.68h-41.02v18.28h35.74v18.28h-35.74v30.06h-21.53Z"/>
    </g>
    <path class="st12" d="M342.83,481.51h309.71c7.66,0,13.87,6.21,13.87,13.87h0c0,7.66-6.21,13.87-13.87,13.87h-309.71c-7.66,0-13.87-6.21-13.87-13.87h0c0-7.66,6.21-13.87,13.87-13.87Z"/>
    <path class="st8" d="M342.83,546.23h231.13c7.66,0,13.87,6.21,13.87,13.87h0c0,7.66-6.21,13.87-13.87,13.87h-231.13c-7.66,0-13.87-6.21-13.87-13.87h0c0-7.66,6.21-13.87,13.87-13.87Z"/>
    <path class="st8" d="M342.83,610.94h268.11c7.66,0,13.87,6.21,13.87,13.87h0c0,7.66-6.21,13.87-13.87,13.87h-268.11c-7.66,0-13.87-6.21-13.87-13.87h0c0-7.66,6.21-13.87,13.87-13.87Z"/>
    <path class="st2" d="M384.44,731.13c55.47-41.6,115.56-13.87,171.03-55.47"/>
  </g>
  <g>
    <path class="st7" d="M846.71,819.63l-73.21,45.17c-3.68,2.27-8.51,1.13-10.78-2.55l-162.16-262.81,86.55-53.4,162.16,262.81c2.27,3.68,1.13,8.51-2.55,10.78Z"/>
    <rect class="st13" x="738.62" y="769.49" width="101.7" height="78.58" transform="translate(-307.09 535.03) rotate(-31.68)"/>
    <polygon class="st14" points="687.11 546.04 600.56 599.44 590.43 486.19 687.11 546.04"/>
    <polygon class="st10" points="632.18 512.04 594.81 535.1 590.43 486.19 632.18 512.04"/>
    <rect class="st0" x="707.07" y="736.84" width="101.7" height="41.6" transform="translate(-284.94 510.84) rotate(-31.68)"/>
  </g>
</svg>